<?xml version="1.0" encoding="UTF-8"?>
<svg height="600" width="800" xmlns="http://www.w3.org/2000/svg" xmlns:xlink="http://www.w3.org/1999/xlink">
    <style>
        
    </style>
    <g id="Notes" font-family="'LucidaGrande', 'Lucida Grande', sans-serif" font-size="13">
        <rect fill="white" height="600.0" width="800.0" x="0.0" y="0.0" />
        <g font-size="13">
            <text x="18.0" y="176.0">Small</text>
            <text x="18.0" y="376.0">Medium</text>
            <text x="18.0" y="576.0">Large</text>
        </g>
        <g font-size="9">
            <text x="250.0" y="30.0">Ultralight</text>
            <text x="450.0" y="30.0">Regular</text>
            <text x="650.0" y="30.0">Black</text>
            <text id="template-version" fill="#505050" text-anchor="end" x="785.0" y="575.0">Template v.3.0</text>
            <a href="https://github.com/swhitty/SwiftDraw">
                <text fill="#505050" text-anchor="end" x="785.0" y="590.0">https://github.com/swhitty/SwiftDraw</text>
            </a>
        </g>
    </g>
    <g id="Guides" stroke="rgb(39, 170, 225)" stroke-width="0.5">
        <path id="Capline-S" d="M18,76 l800,0" />
        <path id="H-reference" d="M85,145.8 L87.7,145.8 L113.4,79.3 L114.1,79.3 L114.1,76 L112.1,76 L85,145.8 Z M95.7,121.5 L131,121.5 L130.3,119.3 L96.5,119.3 L95.7,121.5 Z M139.1,145.8 L141.8,145.8 L114.6,76 L113.5,76 L113.5,79.3 L139.1,145.8 Z" stroke="none" />
        <path id="Baseline-S" d="M18,146 l800,0" />
        <path id="left-margin-Ultralight-S" d="M221,56 l0,110" />
        <path id="right-margin-Ultralight-S" d="M309,56 l0,110" />
        <path id="left-margin-Regular-S" d="M421,56 l0,110" />
        <path id="right-margin-Regular-S" d="M509,56 l0,110" />
        <path id="left-margin-Black-S" d="M621,56 l0,110" />
        <path id="right-margin-Black-S" d="M709,56 l0,110" />
        <path id="Capline-M" d="M18,276 l800,0" />
        <path id="Baseline-M" d="M18,346 l800,0" />
        <path id="Capline-L" d="M18,476 l800,0" />
        <path id="Baseline-L" d="M18,546 l800,0" />
    </g>
    <g id="Symbols">
        <g id="Ultralight-S">
            <path class="monochrome-0 multicolor-0:tintColor hierarchical-0:primary" d="M262.5,146 L267.6,146 C268.1,146 268.5,145.6 268.5,145.2 L268.5,137.3 C276.2,136.1 280.9,130.3 280.9,122.5 C280.9,115.7 277.1,111.3 269.3,108.1 L265.9,106.7 C260.4,104.4 258,102.4 258,98.6 C258,94.8 260.7,92.4 264.8,92.4 C268.4,92.4 270.9,94.6 271.8,99 C271.9,99.3 272.2,99.6 272.6,99.6 L279.1,99.6 C279.6,99.6 280,99.2 280,98.7 C279.4,91.2 274.7,85.7 268.2,84.5 L268.2,76.8 C268.2,76.4 267.8,76 267.3,76 L262.2,76 C261.8,76 261.4,76.4 261.4,76.8 L261.4,84.5 C254.3,85.5 249.7,91.6 249.7,99.3 C249.7,106.1 253.9,111 260.9,113.6 L264.6,115 C270.3,117.2 272.6,119 272.6,123 C272.6,127.1 269.6,129.6 264.8,129.6 C261.4,129.6 258.8,127.3 257.5,123.2 C257.3,122.8 257.1,122.5 256.7,122.5 L250,122.5 C249.5,122.5 249.1,122.9 249.1,123.5 C249.7,130.6 254.7,136.3 261.7,137.3 L261.7,145.2 C261.7,145.6 262,146 262.5,146 Z" />
        </g>
        <g id="Regular-S">
            <path class="monochrome-0 multicolor-0:tintColor hierarchical-0:primary" d="M462.2,146 L467.9,146 C468.7,146 469.4,145.3 469.4,144.5 L469.4,137.1 C477.4,135.6 482.5,130.2 482.5,121.9 C482.5,113.5 477.4,109.8 469.9,106.9 L466.3,105.6 C461.6,103.8 459.2,102 459.2,98.6 C459.2,95.5 461.4,93.6 464.8,93.6 C468.3,93.6 470.2,96 470.8,98.9 C470.9,99.6 471.4,100.1 472.2,100.1 L480.2,100.1 C481.1,100.1 481.7,99.4 481.6,98.4 C480.8,91.2 476.3,86.3 469.1,84.7 L469.1,77.5 C469.1,76.7 468.4,76 467.6,76 L462,76 C461.2,76 460.5,76.7 460.5,77.5 L460.5,84.7 C453.2,86.1 448.1,91.5 448.1,99.8 C448.1,107.7 452.5,112 460.4,114.7 L464.2,116.1 C468.8,117.7 471.4,119.2 471.4,123 C471.4,126.3 469,128.2 464.9,128.2 C461.6,128.2 459.3,126 458.5,123.2 C458.3,122.5 457.8,122.1 457.2,122.1 L449,122.1 C448.1,122.1 447.5,122.8 447.5,123.6 C447.8,130.7 453.2,135.7 460.8,137.1 L460.8,144.5 C460.8,145.3 461.5,146 462.2,146 Z" />
        </g>
        <g id="Black-S">
            <path class="monochrome-0 multicolor-0:tintColor hierarchical-0:primary" d="M662.2,146 L668,146 C669.4,146 670.6,144.7 670.6,143.3 L670.6,137.1 C678.1,135.2 682.5,129.4 682.5,121.3 C682.5,113.6 678.7,109.1 670,105.6 L666.8,104.3 C662.7,102.6 661.3,101.4 661.3,99.1 C661.3,97.3 662.7,96.1 664.8,96.1 C666.7,96.1 668.2,97.6 668.7,99.8 C669,101.2 670.1,102.2 671.5,102.2 L678.8,102.2 C680.6,102.2 681.9,100.7 681.7,98.9 C680.8,91.8 676.9,86.6 670.3,84.7 L670.3,78.7 C670.3,77.3 669.1,76 667.7,76 L661.9,76 C660.5,76 659.3,77.3 659.3,78.7 L659.3,84.7 C652.4,86.6 648.1,92.5 648.1,100.4 C648.1,108.2 652,113 660.3,116.1 L663.7,117.4 C668,119 669.3,120.1 669.3,122.4 C669.3,124.4 667.5,125.7 664.9,125.7 C662.9,125.7 661.3,124.8 660.6,122.2 C660.2,120.8 659.2,119.9 657.9,119.9 L650.4,119.9 C648.8,119.9 647.5,121.4 647.5,123.1 C647.8,130 652.5,135.3 659.6,137.2 L659.6,143.3 C659.6,144.7 660.8,146 662.2,146 Z" />
        </g>
    </g>
</svg>